<?xml version="1.0" encoding="utf-8" ?><svg xmlns="http://www.w3.org/2000/svg" xmlns:xlink="http://www.w3.org/1999/xlink" width="400" height="400" viewBox="0 0 400 400"><path fill="#1A6C4A" d="M0 0L400 0L400 400L0 400L0 0Z"/><path fill="#FEFEFE" d="M310.334 149.402C311.544 149.603 357.543 196.455 362.2 201.051C345.241 217.925 327.002 235.874 310.515 253.114C309.337 251.589 305.593 248.001 304.13 246.533L291.379 233.745L259.879 202.006C253.696 195.79 246.721 189.056 240.787 182.683C241.71 181.654 242.853 180.557 243.84 179.566C247.698 175.901 251.722 171.693 255.498 167.893L310.412 223.16C312.387 221.646 316.317 217.514 318.177 215.639C322.951 210.773 327.763 205.944 332.614 201.155C325.265 193.647 317.87 186.184 310.429 178.766C304.827 185.05 298.143 190.967 292.41 197.329C287.875 192.396 282.299 187.136 277.556 182.184C288.629 171.496 299.262 160.077 310.334 149.402Z"/><path fill="#FEFEFE" d="M89.3156 149.406C91.9057 149.91 149.664 211.427 159.424 219.249C154.653 224.022 149.021 229.427 144.556 234.426C139.758 228.942 132.636 222.371 127.389 216.997C114.916 204.225 101.874 191.694 89.5388 178.804L67.3867 201.133C71.3449 204.609 78.0101 211.795 82.0009 215.834C84.4421 218.318 86.923 220.762 89.4425 223.167C91.9937 220.988 95.8854 216.836 98.3727 214.365C100.714 212.04 105.628 207.303 107.495 204.847C112.542 209.722 117.533 215.201 122.683 219.902C119.572 222.377 113.016 229.311 110.001 232.348C103.098 239.209 96.2561 246.13 89.4755 253.111C87.151 250.351 83 246.415 80.355 243.758L63.6149 226.945L47.1004 210.288C44.3544 207.527 40.6337 203.574 37.7814 201.153C46.6045 192.119 55.503 183.16 64.4761 174.276C72.5265 166.171 81.1074 157.205 89.3156 149.406Z"/><path fill="#FEFEFE" d="M163.107 74.987C163.713 75.389 167.052 78.8355 167.787 79.5776L179.154 91.0573L215.606 127.749L226.588 138.801C228.548 140.782 231.094 143.495 233.118 145.27C228.81 148.916 222.389 155.923 218.21 160.12L163.426 104.881C162.321 105.069 143.675 124.436 140.948 126.824C146.937 132.447 153.298 139.289 159.285 145.169C154.717 150.082 149.298 155.264 144.533 160.162C142.802 157.993 136.265 151.731 134.056 149.511L111.57 126.891C116.545 121.584 122.391 115.99 127.565 110.789L163.107 74.987Z"/><path fill="#FEFEFE" d="M236.789 74.9849C237.914 75.8885 240.911 79.0303 242.056 80.1783L252.881 91.0521L288.514 126.902L249.512 166.075C239.159 176.427 228.858 186.831 218.61 197.287C217.479 195.841 214.693 193.162 213.335 191.793L203.864 182.216L207.227 178.91C224.295 161.766 242.209 144.172 258.966 126.816C252.075 120.521 243.588 111.425 236.815 104.664C235.975 105.415 235.193 106.217 234.417 107.033C229.261 112.449 223.849 117.613 218.747 123.08C214.842 118.946 207.883 111.89 203.828 108.168L236.789 74.9849Z"/><path fill="#FEFEFE" d="M255.483 241.944C256.999 243.076 260.754 247.453 262.39 249.085L279.03 265.784C281.866 268.637 285.631 272.637 288.538 275.178C275.553 287.949 262.887 301.095 249.962 313.932C245.559 318.306 241.17 322.761 236.917 327.278C231.443 321.234 223.719 313.896 217.815 307.969L182.201 272.208C177.645 267.31 171.752 261.623 166.964 256.869C171.977 251.963 176.925 246.992 181.808 241.957C186.653 247.252 192.739 253.087 197.861 258.228L222.933 283.5C227.254 287.837 232.809 293.108 236.832 297.59C238.836 295.263 242.422 291.822 244.636 289.584C249.392 284.745 254.193 279.951 259.038 275.202C252.967 269.455 246.678 262.889 240.711 256.92C245.4 251.947 250.965 247.039 255.483 241.944Z"/><path fill="#FEFEFE" d="M181.167 205.193C181.989 205.297 194.688 218.319 196.171 219.795C191.539 224.086 186.518 229.628 181.918 234.13C168.23 247.529 154.83 262 140.986 275.16L155.417 289.63C157.841 292.078 160.877 295.008 163.108 297.538C168.881 291.693 175.908 285.049 181.363 279.101C185.154 283.372 191.969 289.827 196.114 294.011C191.125 298.871 186.099 304.055 181.168 309.003L163.11 327.301C161.841 325.679 158.704 322.656 157.142 321.085L146.238 310.123L111.507 275.19C118.266 268.827 125.718 260.981 132.322 254.35L181.167 205.193Z"/><path fill="#FEFEFE" d="M181.299 130.916C182.064 131.192 194.602 144.135 196.168 145.747C185.249 156.332 174.39 167.599 163.643 178.387L152.232 189.813C150.066 191.984 147.023 194.91 145.154 197.231C144.441 196.783 140.858 193.064 140.112 192.305C136.831 188.919 133.504 185.577 130.132 182.282L181.299 130.916Z"/><path fill="#FEFEFE" d="M181.715 167.942C184.399 170.133 190.508 176.614 193.218 179.351L218.372 204.627C222.093 208.397 229.387 216.209 233.127 219.278C228.094 224.203 223.145 229.212 218.281 234.303C216.745 232.989 213.99 230.054 212.491 228.534L201.413 217.315L166.983 182.578C171.042 179.143 177.859 171.85 181.715 167.942Z"/><path fill="#FEFEFE" d="M254.866 205.165C255.599 205.27 268.141 218.088 270.025 219.907C267.943 221.596 264.917 224.746 262.949 226.721L251.828 237.922L218.951 271.105C217.822 270.923 205.684 258.238 203.81 256.441C221.036 239.777 237.729 221.941 254.866 205.165Z"/><path fill="#FEFEFE" d="M200.228 308.422C200.837 308.548 224.446 332.778 227.138 335.181C223.135 338.761 217.719 344.657 213.767 348.526C210.239 351.98 203.555 358.429 200.553 362.1C199.66 361.798 176.221 337.892 173.469 335.21C182.483 326.472 191.227 317.223 200.228 308.422Z"/><path fill="#FEFEFE" d="M200.263 37.9177C200.726 38.13 204.09 41.7404 204.739 42.3954L219.01 56.7537C221.232 58.9862 224.849 62.8227 227.126 64.7357C218.573 73.252 208.639 82.9169 200.494 91.7059C199.606 91.1739 193.338 84.7314 192.206 83.5875L173.48 64.7289C182.182 56.621 191.697 46.437 200.263 37.9177Z"/></svg>